<svg width="54" height="40" viewBox="0 0 54 40" fill="none" xmlns="http://www.w3.org/2000/svg">
  <path d="M36.1548 17.3169H5.50781V5.54883H36.1548V17.3169ZM6.1708 16.6485H35.4918V6.21646H6.1708V16.6485Z" fill="#222226" />
  <path d="M44.6795 28.8211H2.75195V2.77441H44.6795V28.8211ZM3.41494 28.1527H44.019V3.44204H3.41494V28.1527Z" fill="#222226" />
  <path d="M53.3333 40.0004H0V-0.000976562H53.3333V40.0004ZM0.660528 39.3321H52.6703V0.667395H0.660528V39.3321Z" fill="#222226" />
  <path fill-rule="evenodd" clip-rule="evenodd" d="M12.2481 11.5775C12.2481 10.3945 11.5277 9.83476 10.4844 9.83476H9.82554V13.3202H10.4844C11.5279 13.3202 12.2481 12.76 12.2481 11.5775ZM9.08398 9.15723H10.4701C11.9328 9.15723 13.0037 9.99417 13.0037 11.5775C13.0037 13.1608 11.9328 13.9975 10.4701 13.9975H9.08398V9.15723Z" fill="#222226" />
  <path fill-rule="evenodd" clip-rule="evenodd" d="M17.9695 12.2753C17.9695 13.4437 17.1801 14.0943 16.095 14.0943C15.0099 14.0943 14.2217 13.444 14.2217 12.2753V9.15625H14.9627V12.2535C14.951 12.4073 14.972 12.5619 15.0245 12.7068C15.0769 12.8518 15.1596 12.9837 15.2669 13.0937C15.3742 13.2037 15.5036 13.2893 15.6464 13.3446C15.7893 13.3999 15.9422 13.4238 16.095 13.4145C16.2478 13.424 16.401 13.4003 16.544 13.345C16.687 13.2897 16.8166 13.2042 16.924 13.0942C17.0315 12.9842 17.1143 12.8522 17.1669 12.7072C17.2195 12.5622 17.2407 12.4075 17.2289 12.2535V9.15724H17.9695V12.2753Z" fill="#222226" />
  <path fill-rule="evenodd" clip-rule="evenodd" d="M18.9673 9.1582H22.6736V9.83672H21.1902V13.9984H20.4497V9.83672H18.9668L18.9673 9.1582Z" fill="#222226" />
  <path fill-rule="evenodd" clip-rule="evenodd" d="M27.8136 12.8221C27.3132 13.6449 26.7497 14.0947 25.7137 14.0947C24.3472 14.0947 23.3319 13.0567 23.3319 11.5777C23.3194 11.2506 23.3727 10.9244 23.4887 10.6188C23.6047 10.3131 23.7809 10.0343 24.0067 9.79913C24.2325 9.56398 24.5032 9.37738 24.8025 9.25058C25.1018 9.12378 25.4234 9.05942 25.7481 9.06137C26.1743 9.04397 26.5961 9.15336 26.9611 9.37591C27.3261 9.59846 27.618 9.92433 27.8006 10.313L27.2113 10.7415C26.8675 10.0711 26.3936 9.7389 25.7353 9.7389C24.8292 9.7389 24.0874 10.5132 24.0874 11.5786C24.0874 12.6295 24.7801 13.4174 25.7284 13.4174C26.3732 13.4174 26.8808 13.1062 27.2449 12.4151L27.8136 12.8221Z" fill="#222226" />
  <path fill-rule="evenodd" clip-rule="evenodd" d="M29.0459 9.1582H29.7865V11.1908H32.0239V9.1582H32.7662V13.9984H32.0239V11.8683H29.7865V13.9984H29.0459V9.1582Z" fill="#222226" />
  <path fill-rule="evenodd" clip-rule="evenodd" d="M9.55648 22.8018C9.55648 21.6191 8.83629 21.0591 7.79295 21.0591H7.13389V24.5446H7.79295C8.83653 24.5446 9.55648 23.9849 9.55648 22.8018ZM6.39258 20.3818H7.7787C9.2412 20.3818 10.312 21.2188 10.312 22.8018C10.312 24.3849 9.2412 25.2218 7.7787 25.2218H6.39258V20.3818Z" fill="#222226" />
  <path fill-rule="evenodd" clip-rule="evenodd" d="M12.7324 25.2211H13.473V20.3809H12.7324V25.2211Z" fill="#222226" />
  <path fill-rule="evenodd" clip-rule="evenodd" d="M19.7157 24.4749C19.5697 24.7427 19.352 24.9638 19.0874 25.1129C18.8228 25.262 18.522 25.3332 18.2193 25.3183C16.8668 25.3183 15.878 24.2606 15.878 22.8013C15.8686 22.4745 15.9243 22.1491 16.0419 21.8443C16.1594 21.5396 16.3363 21.2617 16.5622 21.0271C16.788 20.7924 17.0583 20.6058 17.3569 20.4783C17.6555 20.3508 17.9765 20.2849 18.3008 20.2845C18.7173 20.2703 19.1295 20.3735 19.491 20.5826C19.8525 20.7916 20.149 21.0981 20.3472 21.4678L19.7837 21.8616C19.647 21.5811 19.4334 21.346 19.1681 21.1841C18.9029 21.0223 18.5972 20.9406 18.2873 20.9487C17.3881 20.9487 16.6335 21.675 16.6335 22.8018C16.6335 23.9014 17.2855 24.641 18.2323 24.641C19.104 24.641 19.5435 24.0808 19.6469 23.3278H18.0263V22.7117H20.3872V25.2215H19.8937L19.7157 24.4749Z" fill="#222226" />
  <path fill-rule="evenodd" clip-rule="evenodd" d="M22.959 25.2211H23.6996V20.3809H22.959V25.2211Z" fill="#222226" />
  <path fill-rule="evenodd" clip-rule="evenodd" d="M25.8464 20.3809H29.552V21.0581H28.0692V25.2211H27.3286V21.0581H25.8457L25.8464 20.3809Z" fill="#222226" />
  <path fill-rule="evenodd" clip-rule="evenodd" d="M32.8381 21.6953L32.2542 23.2239H33.7506L33.1682 21.6953C33.0714 21.4463 33.0034 21.2322 33.0034 21.2322C33.0034 21.2322 32.9349 21.4463 32.8381 21.6953ZM32.6321 20.3818H33.3744L35.2954 25.2221H34.5133L33.9976 23.874H32.0072L31.4916 25.2221H30.709L32.6321 20.3818Z" fill="#222226" />
  <path fill-rule="evenodd" clip-rule="evenodd" d="M37.417 20.3809H38.1581V24.5572H40.5674V25.2211H37.417V20.3809Z" fill="#222226" />
  <path fill-rule="evenodd" clip-rule="evenodd" d="M6.02955 33.1768L5.44563 34.7053H6.94201L6.35809 33.1768C6.26233 32.9277 6.19333 32.7136 6.19333 32.7136C6.19333 32.7136 6.12507 32.9277 6.02955 33.1768ZM5.82304 31.8633H6.56436L8.48652 36.7035H7.70346L7.18781 35.3554H5.19836L4.68271 36.7035H3.90039L5.82304 31.8633Z" fill="#222226" />
  <path fill-rule="evenodd" clip-rule="evenodd" d="M14.1588 35.9574C14.0129 36.2252 13.7952 36.4464 13.5306 36.5955C13.266 36.7446 12.9652 36.8157 12.6624 36.8008C11.3102 36.8008 10.3213 35.743 10.3213 34.284C10.3119 33.9571 10.3676 33.6317 10.4851 33.327C10.6026 33.0222 10.7795 32.7443 11.0054 32.5097C11.2312 32.275 11.5014 32.0884 11.8 31.9608C12.0986 31.8333 12.4196 31.7673 12.7439 31.7669C13.1604 31.7527 13.5726 31.8558 13.9341 32.0647C14.2956 32.2737 14.5921 32.5802 14.7903 32.9497L14.227 33.3435C14.0904 33.063 13.8767 32.8279 13.6115 32.6661C13.3463 32.5043 13.0406 32.4225 12.7307 32.4306C11.8315 32.4306 11.0769 33.1569 11.0769 34.284C11.0769 35.3833 11.7288 36.1227 12.6759 36.1227C13.5476 36.1227 13.9871 35.5625 14.0905 34.8107H12.4699V34.1941H14.8308V36.7042H14.3375L14.1588 35.9574Z" fill="#222226" />
  <path fill-rule="evenodd" clip-rule="evenodd" d="M17.5586 31.8633H20.7156V32.5272H18.2992V33.8684H20.5236V34.5323H18.2997V36.0396H20.7365V36.7035H17.5591L17.5586 31.8633Z" fill="#222226" />
  <path fill-rule="evenodd" clip-rule="evenodd" d="M23.3379 31.8633H24.0925L26.2486 35.2363C26.3242 35.3546 26.3931 35.477 26.4551 35.6029V31.8633H27.1672V36.7038H26.4127L24.2572 33.3302C24.1819 33.2122 24.1132 33.09 24.0517 32.9641V36.7038H23.3379V31.8633Z" fill="#222226" />
  <path fill-rule="evenodd" clip-rule="evenodd" d="M34.2199 35.5289C33.7195 36.3517 33.1559 36.8012 32.12 36.8012C30.7535 36.8012 29.7381 35.7635 29.7381 34.2845C29.7256 33.9574 29.7788 33.6312 29.8947 33.3254C30.0107 33.0197 30.1868 32.7408 30.4125 32.5056C30.6383 32.2704 30.909 32.0837 31.2083 31.9568C31.5075 31.83 31.8292 31.7655 32.1538 31.7674C32.5799 31.75 33.0017 31.8594 33.3666 32.0819C33.7315 32.3044 34.0234 32.6302 34.2059 33.0188L33.6181 33.4478C33.2743 32.7774 32.8004 32.4452 32.1421 32.4452C31.236 32.4452 30.4942 33.2195 30.4942 34.2849C30.4942 35.3358 31.1869 36.1237 32.1349 36.1237C32.78 36.1237 33.2875 35.8125 33.6517 35.1212L34.2199 35.5289Z" fill="#222226" />
  <path fill-rule="evenodd" clip-rule="evenodd" d="M36.7344 36.7033H37.4749V31.8633H36.7344V36.7033Z" fill="#222226" />
  <path fill-rule="evenodd" clip-rule="evenodd" d="M40.2725 31.8633H43.4295V32.5272H41.013V33.8684H43.2372V34.5323H41.013V36.0396H43.4499V36.7035H40.2725V31.8633Z" fill="#222226" />
  <path fill-rule="evenodd" clip-rule="evenodd" d="M47.8611 33.8966C48.8964 34.0971 49.412 34.5328 49.412 35.3415C49.412 36.123 48.7397 36.802 47.6549 36.802C46.5094 36.802 45.8434 36.1381 45.6855 35.2739L46.3375 34.9353C46.4738 35.7302 46.9202 36.1522 47.6485 36.1522C48.2869 36.1522 48.6707 35.7995 48.6707 35.371C48.6707 34.8657 48.2734 34.6442 47.4493 34.4858C46.5573 34.3125 45.9053 33.877 45.9053 33.0611C45.9053 32.2938 46.5845 31.768 47.552 31.768C47.9382 31.7441 48.3215 31.8491 48.6428 32.0666C48.9641 32.2841 49.2055 32.6021 49.3297 32.9715L48.7404 33.3181C48.6737 33.0528 48.5185 32.8188 48.301 32.6551C48.0835 32.4913 47.8168 32.4079 47.5456 32.4188C47.038 32.4188 46.6056 32.6339 46.6056 33.0485C46.6056 33.4842 47.0177 33.733 47.8619 33.8986" fill="#222226" />
  <path fill-rule="evenodd" clip-rule="evenodd" d="M12.2481 11.5784C12.2481 10.3954 11.5277 9.83573 10.4844 9.83573H9.82554V13.3212H10.4844C11.5279 13.3212 12.2481 12.761 12.2481 11.5784ZM9.08398 9.1582H10.4701C11.9328 9.1582 13.0037 9.99515 13.0037 11.5784C13.0037 13.1617 11.9328 13.9984 10.4701 13.9984H9.08398V9.1582Z" fill="#222226" />
  <path fill-rule="evenodd" clip-rule="evenodd" d="M17.9695 12.2763C17.9695 13.4447 17.1801 14.0953 16.095 14.0953C15.0099 14.0953 14.2217 13.445 14.2217 12.2763V9.15723H14.9627V12.2545C14.951 12.4083 14.972 12.5629 15.0245 12.7078C15.0769 12.8527 15.1596 12.9847 15.2669 13.0947C15.3742 13.2047 15.5036 13.2902 15.6464 13.3456C15.7893 13.4009 15.9422 13.4248 16.095 13.4155C16.2478 13.4249 16.401 13.4012 16.544 13.346C16.687 13.2907 16.8166 13.2052 16.924 13.0952C17.0315 12.9852 17.1143 12.8532 17.1669 12.7082C17.2195 12.5632 17.2407 12.4085 17.2289 12.2545V9.15822H17.9695V12.2763Z" fill="#222226" />
  <path fill-rule="evenodd" clip-rule="evenodd" d="M18.9683 9.1582H22.6746V9.83672H21.1912V13.9984H20.4506V9.83672H18.9678L18.9683 9.1582Z" fill="#222226" />
  <path fill-rule="evenodd" clip-rule="evenodd" d="M27.8136 12.823C27.3132 13.6459 26.7497 14.0957 25.7137 14.0957C24.3472 14.0957 23.3319 13.0577 23.3319 11.5786C23.3194 11.2516 23.3727 10.9254 23.4887 10.6197C23.6047 10.3141 23.7809 10.0352 24.0067 9.8001C24.2325 9.56496 24.5032 9.37836 24.8025 9.25156C25.1018 9.12476 25.4234 9.06039 25.7481 9.06234C26.1743 9.04494 26.5961 9.15433 26.9611 9.37688C27.3261 9.59943 27.618 9.92531 27.8006 10.3139L27.2113 10.7424C26.8675 10.0721 26.3936 9.73987 25.7353 9.73987C24.8292 9.73987 24.0874 10.5142 24.0874 11.5796C24.0874 12.6305 24.7801 13.4184 25.7284 13.4184C26.3732 13.4184 26.8808 13.1072 27.2449 12.4161L27.8136 12.823Z" fill="#222226" />
  <path fill-rule="evenodd" clip-rule="evenodd" d="M29.0459 9.1582H29.7865V11.1908H32.0239V9.1582H32.7662V13.9984H32.0239V11.8683H29.7865V13.9984H29.0459V9.1582Z" fill="#222226" />
  <path fill-rule="evenodd" clip-rule="evenodd" d="M9.55746 22.8028C9.55746 21.62 8.83726 21.0601 7.79392 21.0601H7.13487V24.5455H7.79392C8.83751 24.5455 9.55746 23.9858 9.55746 22.8028ZM6.39355 20.3828H7.77968C9.24217 20.3828 10.313 21.2198 10.313 22.8028C10.313 24.3859 9.24217 25.2228 7.77968 25.2228H6.39355V20.3828Z" fill="#222226" />
  <path fill-rule="evenodd" clip-rule="evenodd" d="M12.7314 25.2211H13.472V20.3809H12.7314V25.2211Z" fill="#222226" />
  <path fill-rule="evenodd" clip-rule="evenodd" d="M19.7147 24.4749C19.5687 24.7427 19.351 24.9638 19.0864 25.1129C18.8219 25.262 18.521 25.3332 18.2183 25.3183C16.8658 25.3183 15.877 24.2606 15.877 22.8013C15.8676 22.4745 15.9234 22.1491 16.0409 21.8443C16.1584 21.5396 16.3353 21.2617 16.5612 21.0271C16.7871 20.7924 17.0573 20.6058 17.3559 20.4783C17.6545 20.3508 17.9755 20.2849 18.2998 20.2845C18.7163 20.2703 19.1285 20.3735 19.49 20.5826C19.8516 20.7916 20.1481 21.0981 20.3462 21.4678L19.7827 21.8616C19.646 21.5811 19.4324 21.346 19.1672 21.1841C18.9019 21.0223 18.5962 20.9406 18.2863 20.9487C17.3871 20.9487 16.6325 21.675 16.6325 22.8018C16.6325 23.9014 17.2845 24.641 18.2313 24.641C19.103 24.641 19.5425 24.0808 19.6459 23.3278H18.0253V22.7117H20.3863V25.2215H19.8927L19.7147 24.4749Z" fill="#222226" />
  <path fill-rule="evenodd" clip-rule="evenodd" d="M22.959 25.2211H23.6996V20.3809H22.959V25.2211Z" fill="#222226" />
  <path fill-rule="evenodd" clip-rule="evenodd" d="M25.8464 20.3809H29.552V21.0581H28.0692V25.2211H27.3286V21.0581H25.8457L25.8464 20.3809Z" fill="#222226" />
  <path fill-rule="evenodd" clip-rule="evenodd" d="M32.8391 21.6963L32.2552 23.2249H33.7516L33.1691 21.6963C33.0724 21.4473 33.0044 21.2331 33.0044 21.2331C33.0044 21.2331 32.9359 21.4473 32.8391 21.6963ZM32.6331 20.3828H33.3754L35.2963 25.2231H34.5143L33.9986 23.8749H32.0082L31.4925 25.2231H30.71L32.6331 20.3828Z" fill="#222226" />
  <path fill-rule="evenodd" clip-rule="evenodd" d="M37.417 20.3809H38.1581V24.5572H40.5674V25.2211H37.417V20.3809Z" fill="#222226" />
  <path fill-rule="evenodd" clip-rule="evenodd" d="M6.02955 33.1768L5.44563 34.7053H6.94201L6.35809 33.1768C6.26233 32.9277 6.19333 32.7136 6.19333 32.7136C6.19333 32.7136 6.12507 32.9277 6.02955 33.1768ZM5.82304 31.8633H6.56436L8.48652 36.7035H7.70346L7.18781 35.3554H5.19836L4.68271 36.7035H3.90039L5.82304 31.8633Z" fill="#222226" />
  <path fill-rule="evenodd" clip-rule="evenodd" d="M14.1578 35.9574C14.0119 36.2252 13.7942 36.4464 13.5296 36.5955C13.265 36.7446 12.9642 36.8157 12.6614 36.8008C11.3092 36.8008 10.3204 35.743 10.3204 34.284C10.311 33.9571 10.3667 33.6317 10.4841 33.327C10.6016 33.0222 10.7785 32.7443 11.0044 32.5097C11.2302 32.275 11.5004 32.0884 11.7991 31.9608C12.0977 31.8333 12.4186 31.7673 12.7429 31.7669C13.1594 31.7527 13.5716 31.8558 13.9331 32.0647C14.2946 32.2737 14.5911 32.5802 14.7894 32.9497L14.2261 33.3435C14.0894 33.063 13.8758 32.8279 13.6105 32.6661C13.3453 32.5043 13.0396 32.4225 12.7297 32.4306C11.8305 32.4306 11.0759 33.1569 11.0759 34.284C11.0759 35.3833 11.7278 36.1227 12.6749 36.1227C13.5466 36.1227 13.9862 35.5625 14.0895 34.8107H12.4689V34.1941H14.8299V36.7042H14.3366L14.1578 35.9574Z" fill="#222226" />
  <path fill-rule="evenodd" clip-rule="evenodd" d="M17.5596 31.8633H20.7166V32.5272H18.3001V33.8684H20.5246V34.5323H18.3006V36.0396H20.7375V36.7035H17.5601L17.5596 31.8633Z" fill="#222226" />
  <path fill-rule="evenodd" clip-rule="evenodd" d="M23.3389 31.8633H24.0934L26.2496 35.2363C26.3251 35.3546 26.3941 35.477 26.4561 35.6029V31.8633H27.1682V36.7038H26.4136L24.2582 33.3302C24.1828 33.2122 24.1142 33.09 24.0527 32.9641V36.7038H23.3389V31.8633Z" fill="#222226" />
  <path fill-rule="evenodd" clip-rule="evenodd" d="M34.2199 35.5289C33.7195 36.3517 33.1559 36.8012 32.12 36.8012C30.7535 36.8012 29.7381 35.7635 29.7381 34.2845C29.7256 33.9574 29.7788 33.6312 29.8947 33.3254C30.0107 33.0197 30.1868 32.7408 30.4125 32.5056C30.6383 32.2704 30.909 32.0837 31.2083 31.9568C31.5075 31.83 31.8292 31.7655 32.1538 31.7674C32.5799 31.75 33.0017 31.8594 33.3666 32.0819C33.7315 32.3044 34.0234 32.6302 34.2059 33.0188L33.6181 33.4478C33.2743 32.7774 32.8004 32.4452 32.1421 32.4452C31.236 32.4452 30.4942 33.2195 30.4942 34.2849C30.4942 35.3358 31.1869 36.1237 32.1349 36.1237C32.78 36.1237 33.2875 35.8125 33.6517 35.1212L34.2199 35.5289Z" fill="#222226" />
  <path fill-rule="evenodd" clip-rule="evenodd" d="M36.7344 36.7033H37.4749V31.8633H36.7344V36.7033Z" fill="#222226" />
  <path fill-rule="evenodd" clip-rule="evenodd" d="M40.2725 31.8633H43.4295V32.5272H41.013V33.8684H43.2372V34.5323H41.013V36.0396H43.4499V36.7035H40.2725V31.8633Z" fill="#222226" />
</svg>